<?xml version="1.0" encoding="UTF-8" standalone="no"?>
<svg width="224px" height="104px" viewBox="0 0 224 104" version="1.1" xmlns="http://www.w3.org/2000/svg" xmlns:xlink="http://www.w3.org/1999/xlink" xmlns:sketch="http://www.bohemiancoding.com/sketch/ns">
    <!-- Generator: Sketch 3.0.3 (7891) - http://www.bohemiancoding.com/sketch -->
    <title>icons_login_fixbg</title>
    <desc>Created with Sketch.</desc>
    <defs></defs>
    <g id="Page-1" stroke="none" stroke-width="1" fill="none" fill-rule="evenodd" sketch:type="MSPage">
        <g id="all" sketch:type="MSArtboardGroup" transform="translate(-547.000000, -146.000000)">
            <g id="Imported-Layers" sketch:type="MSLayerGroup" transform="translate(547.000000, 146.000000)">
                <path d="M22,44 C34.1502645,44 44,34.1502645 44,22 C44,9.8497355 34.1502645,0 22,0 C9.8497355,0 0,9.8497355 0,22 C0,34.1502645 9.8497355,44 22,44 Z" id="Oval-38" fill-opacity="0.1" fill="#000000" sketch:type="MSShapeGroup"></path>
                <circle id="Oval-39" fill-opacity="0.1" fill="#000000" sketch:type="MSShapeGroup" cx="82" cy="22" r="22"></circle>
                <circle id="Oval-40" fill-opacity="0.1" fill="#000000" sketch:type="MSShapeGroup" cx="142" cy="22" r="22"></circle>
                <circle id="Oval-41" fill-opacity="0.1" fill="#000000" sketch:type="MSShapeGroup" cx="202" cy="22" r="22"></circle>
                <path d="M22,104 C34.1502645,104 44,94.1502645 44,82 C44,69.8497355 34.1502645,60 22,60 C9.8497355,60 0,69.8497355 0,82 C0,94.1502645 9.8497355,104 22,104 Z" id="Oval-45" fill-opacity="0.1" fill="#000000" sketch:type="MSShapeGroup"></path>
                <circle id="Oval-44" fill-opacity="0.1" fill="#000000" sketch:type="MSShapeGroup" cx="82" cy="82" r="22"></circle>
                <circle id="Oval-43" fill-opacity="0.1" fill="#000000" sketch:type="MSShapeGroup" cx="142" cy="82" r="22"></circle>
                <circle id="Oval-42" fill-opacity="0.1" fill="#000000" sketch:type="MSShapeGroup" cx="202" cy="82" r="22"></circle>
                <path d="M21.999,2.001 C33.046,2.001 41.999,10.954 41.999,22.001 C41.999,33.046 33.046,42.001 21.999,42.001 C10.954,42.001 2.001,33.046 2.001,22.001 C2.001,10.954 10.954,2.001 21.999,2.001" id="Fill-1" fill="#C90000" sketch:type="MSShapeGroup"></path>
                <path d="M33.732,19.5 C33.269,19.5 32.892,19.125 32.892,18.66 C32.892,15.189 30.068,12.365 26.595,12.365 C26.132,12.365 25.755,11.989 25.755,11.525 C25.755,11.062 26.132,10.684 26.595,10.684 C30.995,10.684 34.574,14.263 34.574,18.66 C34.574,19.125 34.197,19.5 33.732,19.5 L33.732,19.5 Z M26.262,16.046 C27.805,16.046 29.062,17.303 29.062,18.846 C29.062,19.193 28.779,19.476 28.432,19.476 C28.082,19.476 27.8,19.193 27.8,18.846 C27.8,17.998 27.11,17.308 26.262,17.308 C25.914,17.308 25.632,17.026 25.632,16.676 C25.632,16.329 25.914,16.046 26.262,16.046 L26.262,16.046 Z M26.243,18.79 C27.277,19.565 26.169,21.977 26.169,21.977 C26.169,21.977 29.729,21.792 30.581,23.904 C32.334,28.245 25.02,33.691 18.234,33.691 C11.451,33.691 8.928,30.17 8.928,27.093 C8.928,24.016 10.3,21.46 13.007,18.604 C15.578,15.894 17.796,14.812 19.199,15.195 C20.423,15.527 19.976,18.309 20.014,19.865 C22.388,18.346 25.206,18.011 26.243,18.79 L26.243,18.79 Z M18.428,22.332 C13.955,22.772 10.547,25.364 10.82,28.119 C11.092,30.876 14.938,32.752 19.413,32.309 C23.886,31.869 27.292,29.277 27.021,26.522 C26.749,23.767 22.901,21.891 18.428,22.332 L18.428,22.332 Z M19.686,30.67 C17.803,31.807 15.507,31.458 14.559,29.889 C13.609,28.32 14.368,26.126 16.251,24.988 C18.134,23.85 20.43,24.2 21.378,25.769 C22.326,27.338 21.57,29.532 19.686,30.67 L19.686,30.67 Z M18.402,27.567 C18.088,27.046 17.318,26.933 16.682,27.316 C16.048,27.699 15.79,28.433 16.106,28.956 C16.422,29.478 17.191,29.589 17.826,29.206 C18.461,28.824 18.718,28.089 18.402,27.567 L18.402,27.567 Z M30.105,18.585 C30.105,16.611 28.497,15.003 26.522,15.003 C26.115,15.003 25.786,14.674 25.786,14.269 C25.786,13.862 26.115,13.532 26.522,13.532 C29.309,13.532 31.577,15.799 31.577,18.585 C31.577,18.993 31.246,19.322 30.841,19.322 C30.434,19.322 30.105,18.993 30.105,18.585 L30.105,18.585 Z" id="Fill-2" fill="#FFFFFF" sketch:type="MSShapeGroup"></path>
                <path d="M81.999,2.001 C93.046,2.001 102,10.954 102,22.001 C102,33.046 93.046,42.001 81.999,42.001 C70.955,42.001 61.999,33.046 61.999,22.001 C61.999,10.954 70.955,2.001 81.999,2.001" id="Fill-3" fill="#2A9CD5" sketch:type="MSShapeGroup"></path>
                <path d="M78.96,32.309 L77.729,32.309 C76.484,32.183 74.766,32.096 74.234,31.227 C74.05,30.926 74.061,30.259 74.251,29.921 C74.533,29.422 75.175,29.283 75.92,29.18 C75.186,28.6 74.505,27.965 74.111,27.033 C74.048,26.883 73.977,26.725 73.918,26.568 C73.857,26.409 73.834,26.241 73.741,26.087 C73.58,26.215 73.528,26.451 73.425,26.637 C73.213,26.886 72.877,27.307 72.513,27.479 C72.386,27.541 72.161,27.632 72.02,27.6 C71.745,27.537 71.689,26.938 71.635,26.585 L71.635,25.71 C71.921,23.453 73.118,22.086 74.567,20.965 C74.338,20.35 74.611,19.656 74.901,19.281 C74.89,18.92 75.024,18.422 75.253,18.182 C75.273,16.989 75.613,16.022 76.113,15.243 C77.015,13.834 78.041,12.689 79.785,12.131 C81.525,11.575 84.009,11.625 85.615,12.304 C86.474,12.664 87.157,13.036 87.724,13.592 C88.614,14.462 89.133,15.494 89.499,16.892 C89.557,17.117 89.607,17.353 89.638,17.597 C89.668,17.823 89.674,18.089 89.744,18.32 C89.832,18.604 90.116,18.864 90.235,19.212 C90.438,19.798 90.466,20.424 90.183,20.948 C90.73,21.72 91.228,22.564 91.711,23.646 C92.102,24.523 92.431,26.143 91.975,27.171 C91.864,27.422 91.596,27.768 91.325,27.771 C91.014,27.777 90.797,27.422 90.641,27.188 C90.455,26.914 90.302,26.654 90.166,26.379 C89.906,26.7 89.809,27.134 89.622,27.531 C89.356,28.089 88.971,28.578 88.549,28.993 C89.012,29.247 89.534,29.471 89.954,29.8 C90.222,30.01 90.581,30.305 90.483,30.798 C90.427,31.064 90.185,31.33 89.99,31.467 C88.677,32.397 85.576,32.278 83.842,31.709 C83.676,31.653 83.503,31.608 83.332,31.553 C83.174,31.502 83.007,31.404 82.858,31.382 C82.734,31.361 82.542,31.374 82.384,31.365 C82.211,31.352 82.007,31.317 81.927,31.33 C81.84,31.344 81.717,31.46 81.611,31.519 C80.869,31.939 80.042,32.276 78.96,32.309" id="Fill-4" fill="#FFFFFF" sketch:type="MSShapeGroup"></path>
                <path d="M162,22.001 C162,33.046 153.046,42.001 142,42.001 C130.955,42.001 122,33.046 122,22.001 C122,10.954 130.955,2.001 142,2.001 C153.046,2.001 162,10.954 162,22.001 Z" id="Fill-5" fill="#22A049" sketch:type="MSShapeGroup"></path>
                <path d="M133.063,15.871 L150.726,15.871 L150.726,13.419 L133.063,13.419 L133.063,15.871 Z M132.489,30.411 L151.301,30.411 L151.301,27.959 L146.253,27.959 L148.044,25.412 L145.688,24.568 L149.271,24.568 L149.271,17.385 L134.519,17.385 L134.519,24.568 L137.633,24.568 L135.668,25.698 C136.391,26.6 136.975,27.353 137.421,27.959 L132.489,27.959 L132.489,30.411 L132.489,30.411 Z M137.201,19.721 L146.588,19.721 L146.588,22.231 L137.201,22.231 L137.201,19.721 Z M138.265,24.568 L145.114,24.568 C144.448,25.751 143.771,26.881 143.082,27.959 L139.165,27.959 L140.362,27.251 C139.94,26.669 139.241,25.775 138.265,24.568 L138.265,24.568 Z" id="Fill-6" fill="#FFFFFF" sketch:type="MSShapeGroup"></path>
                <path d="M202,2.001 C213.045,2.001 222,10.954 222,22.001 C222,33.046 213.045,42.001 202,42.001 C190.955,42.001 182,33.046 182,22.001 C182,10.954 190.955,2.001 202,2.001" id="Fill-7" fill="#337AC5" sketch:type="MSShapeGroup"></path>
                <path d="M193.833,28.967 C192.165,27.074 191.152,24.59 191.152,21.871 C191.152,16.505 195.088,12.058 200.23,11.259 L200.23,17.939 C200.23,22.651 197.652,26.769 193.833,28.967 L193.833,28.967 Z M210.072,28.967 C206.254,26.769 203.675,22.651 203.675,17.939 L203.675,11.259 C208.817,12.058 212.751,16.505 212.751,21.871 C212.751,24.59 211.738,27.074 210.072,28.967 L210.072,28.967 Z M201.894,32.612 C199.948,32.612 198.124,32.092 196.549,31.186 C198.851,29.612 200.723,27.455 201.952,24.929 C203.171,27.435 205.023,29.578 207.3,31.151 C205.711,32.079 203.865,32.612 201.894,32.612 L201.894,32.612 Z" id="Fill-8" fill="#FFFFFF" sketch:type="MSShapeGroup"></path>
                <path d="M21.999,62.001 C33.046,62.001 41.999,70.954 41.999,82.001 C41.999,93.046 33.046,102.001 21.999,102.001 C10.954,102.001 2.001,93.046 2.001,82.001 C2.001,70.954 10.954,62.001 21.999,62.001" id="Fill-24" fill="#DF0201" sketch:type="MSShapeGroup"></path>
                <path d="M33.732,79.5 C33.269,79.5 32.892,79.125 32.892,78.66 C32.892,75.189 30.068,72.365 26.595,72.365 C26.132,72.365 25.755,71.989 25.755,71.525 C25.755,71.062 26.132,70.684 26.595,70.684 C30.995,70.684 34.574,74.263 34.574,78.66 C34.574,79.125 34.197,79.5 33.732,79.5 L33.732,79.5 Z M26.262,76.046 C27.805,76.046 29.062,77.303 29.062,78.846 C29.062,79.193 28.779,79.476 28.432,79.476 C28.082,79.476 27.8,79.193 27.8,78.846 C27.8,77.998 27.11,77.308 26.262,77.308 C25.914,77.308 25.632,77.026 25.632,76.676 C25.632,76.329 25.914,76.046 26.262,76.046 L26.262,76.046 Z M26.243,78.79 C27.277,79.565 26.169,81.977 26.169,81.977 C26.169,81.977 29.729,81.792 30.581,83.904 C32.334,88.245 25.02,93.691 18.234,93.691 C11.451,93.691 8.928,90.17 8.928,87.093 C8.928,84.016 10.3,81.46 13.007,78.604 C15.578,75.894 17.796,74.812 19.199,75.195 C20.423,75.527 19.976,78.309 20.014,79.865 C22.388,78.346 25.206,78.011 26.243,78.79 L26.243,78.79 Z M18.428,82.332 C13.955,82.772 10.547,85.364 10.82,88.119 C11.092,90.876 14.938,92.752 19.413,92.309 C23.886,91.869 27.292,89.277 27.021,86.522 C26.749,83.767 22.901,81.891 18.428,82.332 L18.428,82.332 Z M19.686,90.67 C17.803,91.807 15.507,91.458 14.559,89.889 C13.609,88.32 14.368,86.126 16.251,84.988 C18.134,83.85 20.43,84.2 21.378,85.769 C22.326,87.338 21.57,89.532 19.686,90.67 L19.686,90.67 Z M18.402,87.567 C18.088,87.046 17.318,86.933 16.682,87.316 C16.048,87.699 15.79,88.433 16.106,88.956 C16.422,89.478 17.191,89.589 17.826,89.206 C18.461,88.824 18.718,88.089 18.402,87.567 L18.402,87.567 Z M30.105,78.585 C30.105,76.611 28.497,75.003 26.522,75.003 C26.115,75.003 25.786,74.674 25.786,74.269 C25.786,73.862 26.115,73.532 26.522,73.532 C29.309,73.532 31.577,75.799 31.577,78.585 C31.577,78.993 31.246,79.322 30.841,79.322 C30.434,79.322 30.105,78.993 30.105,78.585 L30.105,78.585 Z" id="Fill-23" fill="#FFFFFF" sketch:type="MSShapeGroup"></path>
                <path d="M81.999,62.001 C93.046,62.001 102,70.954 102,82.001 C102,93.046 93.046,102.001 81.999,102.001 C70.955,102.001 61.999,93.046 61.999,82.001 C61.999,70.954 70.955,62.001 81.999,62.001" id="Fill-22" fill="#31B0DC" sketch:type="MSShapeGroup"></path>
                <path d="M78.96,92.309 L77.729,92.309 C76.484,92.183 74.766,92.096 74.234,91.227 C74.05,90.926 74.061,90.259 74.251,89.921 C74.533,89.422 75.175,89.283 75.92,89.18 C75.186,88.6 74.505,87.965 74.111,87.033 C74.048,86.883 73.977,86.725 73.918,86.568 C73.857,86.409 73.834,86.241 73.741,86.087 C73.58,86.215 73.528,86.451 73.425,86.637 C73.213,86.886 72.877,87.307 72.513,87.479 C72.386,87.541 72.161,87.632 72.02,87.6 C71.745,87.537 71.689,86.938 71.635,86.585 L71.635,85.71 C71.921,83.453 73.118,82.086 74.567,80.965 C74.338,80.35 74.611,79.656 74.901,79.281 C74.89,78.92 75.024,78.422 75.253,78.182 C75.273,76.989 75.613,76.022 76.113,75.243 C77.015,73.834 78.041,72.689 79.785,72.131 C81.525,71.575 84.009,71.625 85.615,72.304 C86.474,72.664 87.157,73.036 87.724,73.592 C88.614,74.462 89.133,75.494 89.499,76.892 C89.557,77.117 89.607,77.353 89.638,77.597 C89.668,77.823 89.674,78.089 89.744,78.32 C89.832,78.604 90.116,78.864 90.235,79.212 C90.438,79.798 90.466,80.424 90.183,80.948 C90.73,81.72 91.228,82.564 91.711,83.646 C92.102,84.523 92.431,86.143 91.975,87.171 C91.864,87.422 91.596,87.768 91.325,87.771 C91.014,87.777 90.797,87.422 90.641,87.188 C90.455,86.914 90.302,86.654 90.166,86.379 C89.906,86.7 89.809,87.134 89.622,87.531 C89.356,88.089 88.971,88.578 88.549,88.993 C89.012,89.247 89.534,89.471 89.954,89.8 C90.222,90.01 90.581,90.305 90.483,90.798 C90.427,91.064 90.185,91.33 89.99,91.467 C88.677,92.397 85.576,92.278 83.842,91.709 C83.676,91.653 83.503,91.608 83.332,91.553 C83.174,91.502 83.007,91.404 82.858,91.382 C82.734,91.361 82.542,91.374 82.384,91.365 C82.211,91.352 82.007,91.317 81.927,91.33 C81.84,91.344 81.717,91.46 81.611,91.519 C80.869,91.939 80.042,92.276 78.96,92.309" id="Fill-21" fill="#FFFFFF" sketch:type="MSShapeGroup"></path>
                <path d="M162,82.001 C162,93.046 153.046,102.001 142,102.001 C130.955,102.001 122,93.046 122,82.001 C122,70.954 130.955,62.001 142,62.001 C153.046,62.001 162,70.954 162,82.001 Z" id="Fill-20" fill="#29B358" sketch:type="MSShapeGroup"></path>
                <path d="M133.063,75.871 L150.726,75.871 L150.726,73.419 L133.063,73.419 L133.063,75.871 Z M132.489,90.411 L151.301,90.411 L151.301,87.959 L146.253,87.959 L148.044,85.412 L145.688,84.568 L149.271,84.568 L149.271,77.385 L134.519,77.385 L134.519,84.568 L137.633,84.568 L135.668,85.698 C136.391,86.6 136.975,87.353 137.421,87.959 L132.489,87.959 L132.489,90.411 L132.489,90.411 Z M137.201,79.721 L146.588,79.721 L146.588,82.231 L137.201,82.231 L137.201,79.721 Z M138.265,84.568 L145.114,84.568 C144.448,85.751 143.771,86.881 143.082,87.959 L139.165,87.959 L140.362,87.251 C139.94,86.669 139.241,85.775 138.265,84.568 L138.265,84.568 Z" id="Fill-19" fill="#FFFFFF" sketch:type="MSShapeGroup"></path>
                <path d="M202,62.001 C213.045,62.001 222,70.954 222,82.001 C222,93.046 213.045,102.001 202,102.001 C190.955,102.001 182,93.046 182,82.001 C182,70.954 190.955,62.001 202,62.001" id="Fill-18" fill="#3D92D1" sketch:type="MSShapeGroup"></path>
                <path d="M193.833,88.967 C192.165,87.074 191.152,84.59 191.152,81.871 C191.152,76.505 195.088,72.058 200.23,71.259 L200.23,77.939 C200.23,82.651 197.652,86.769 193.833,88.967 L193.833,88.967 Z M210.072,88.967 C206.254,86.769 203.675,82.651 203.675,77.939 L203.675,71.259 C208.817,72.058 212.751,76.505 212.751,81.871 C212.751,84.59 211.738,87.074 210.072,88.967 L210.072,88.967 Z M201.894,92.612 C199.948,92.612 198.124,92.092 196.549,91.186 C198.851,89.612 200.723,87.455 201.952,84.929 C203.171,87.435 205.023,89.578 207.3,91.151 C205.711,92.079 203.865,92.612 201.894,92.612 L201.894,92.612 Z" id="Fill-17" fill="#FFFFFF" sketch:type="MSShapeGroup"></path>
            </g>
        </g>
    </g>
</svg>